<svg width="256" height="256" viewBox="0 0 256 256" fill="none" xmlns="http://www.w3.org/2000/svg">
<g clip-path="url(#clip0_581_296)">
<rect width="256" height="256" fill="white"/>
<rect width="265" height="264" fill="#0D1321"/>
<path d="M143.665 127.455C143.665 123.922 141.767 119.843 138.604 119.843C130.066 119.843 112.669 123.376 94.6423 128.269C97.8052 115.221 101.601 102.173 105.396 92.6597C111.722 89.3976 119.63 85.0482 130.699 79.3381C131.017 76.3494 128.168 73.0873 123.74 72C113.937 73.0873 106.346 77.4367 99.7029 88.0399C92.1119 91.8456 84.8358 93.4767 78.5136 93.4767C70.9226 93.4767 64.597 90.2146 61.4342 82.3298C57.9533 82.0595 55.1085 84.5046 55.1085 88.5836C55.1085 96.195 54.7939 109.513 54.7939 111.148C54.7939 114.68 56.6916 116.584 61.1196 114.68C61.1196 108.429 61.4376 102.449 62.7027 96.7387C65.5476 98.6401 70.2934 101.088 74.4037 101.088C82.6268 101.088 88.3201 100.001 94.9637 97.2824C91.483 105.708 88.3201 116.581 84.8426 130.72C69.0284 135.069 53.5322 139.689 44.0402 143.224C41.51 145.399 44.0402 150.292 46.8885 150.563C57.0096 146.213 70.2934 141.591 83.2595 137.514C81.0473 147.844 78.8315 159.805 76.3013 173.397C74.089 171.493 70.9262 169.048 69.9755 168.777C66.8127 167.963 63.0173 169.591 63.3353 172.039C66.1836 173.67 74.089 182.369 75.354 184C78.5169 183.457 83.2631 182.096 83.8955 178.29C85.4786 169.048 88.6379 151.92 93.066 134.526C110.456 129.356 127.218 124.463 143.665 127.455ZM219.891 148.655C223.054 144.85 222.421 141.588 219.573 140.771C213.88 148.926 202.811 159.255 192.058 159.255C182.255 159.255 171.183 147.295 160.429 131.528C169.285 123.373 181.937 111.412 201.232 93.744C199.967 91.5693 197.436 89.1213 194.588 89.1213C193.005 89.1213 192.372 89.3947 190.16 91.5693C175.293 106.248 165.805 119.027 149.358 133.976C153.786 118.753 158.214 102.173 160.429 87.7636C161.062 84.5016 156.001 82.8705 152.206 84.7719C150.623 110.595 130.699 157.895 131.017 160.343C131.331 163.335 136.077 166.867 140.505 164.692C142.088 159.255 143.986 152.461 146.198 145.393C148.096 143.218 150.941 140.774 154.422 137.238C167.391 155.723 179.092 169.315 187.948 169.315C196.804 169.315 211.667 158.444 219.891 148.655Z" fill="white"/>
</g>
<defs>
<clipPath id="clip0_581_296">
<rect width="256" height="256" fill="white"/>
</clipPath>
</defs>
</svg>
