<svg width="162" height="26" viewBox="0 0 162 26" fill="none" xmlns="http://www.w3.org/2000/svg">
<path d="M65.8297 25.7249L61.6644 18.6164C61.4914 18.6381 61.2274 18.6489 60.8769 18.6489H56.2746V25.7195H52.4871V1.45743H60.8769C62.6431 1.45743 64.1818 1.80418 65.4928 2.4977C66.8039 3.19121 67.8099 4.18271 68.5064 5.47763C69.2029 6.77255 69.5534 8.30586 69.5534 10.0884C69.5534 11.9143 69.1801 13.4855 68.4336 14.8021C67.687 16.1187 66.6127 17.0994 65.2151 17.7495L69.9039 25.7249H65.8297ZM64.4595 6.5179C63.6037 5.68351 62.3518 5.27174 60.7039 5.27174H56.2746V14.943H60.7039C62.3518 14.943 63.6082 14.5204 64.4595 13.6752C65.3153 12.8299 65.7432 11.638 65.7432 10.0884C65.7432 8.53883 65.3153 7.35228 64.4595 6.5179Z" fill="url(#paint0_linear_87_2)"/>
<path d="M76.1682 24.7551C74.9072 23.9479 73.9194 22.8209 73.2138 21.3743C72.5036 19.9277 72.1486 18.2968 72.1486 16.4709C72.1486 14.6451 72.5036 13.0142 73.2138 11.5838C73.9239 10.1535 74.9072 9.03194 76.1682 8.21923C77.4291 7.41194 78.8494 7.00558 80.42 7.00558C82.0132 7.00558 83.4381 7.41194 84.7036 8.21923C85.9646 9.02652 86.9524 10.1481 87.658 11.5838C88.3681 13.0196 88.7232 14.6451 88.7232 16.4709C88.7232 18.2968 88.3681 19.9331 87.658 21.3743C86.9478 22.8209 85.9646 23.9479 84.7036 24.7551C83.4426 25.5624 82.0132 25.9688 80.42 25.9688C78.8494 25.9634 77.4291 25.5624 76.1682 24.7551ZM83.7385 20.6645C84.6125 19.6026 85.0496 18.2047 85.0496 16.4709C85.0496 14.7372 84.6125 13.3393 83.7385 12.2774C82.8645 11.2154 81.7583 10.6844 80.42 10.6844C79.0816 10.6844 77.98 11.2154 77.115 12.2774C76.2501 13.3393 75.8177 14.7372 75.8177 16.4709C75.8177 18.2047 76.2501 19.6026 77.115 20.6645C77.98 21.7265 79.0816 22.2574 80.42 22.2574C81.7583 22.2574 82.869 21.7265 83.7385 20.6645Z" fill="url(#paint1_linear_87_2)"/>
<path d="M98.5644 17.7821L95.8558 20.8324V25.7195H92.2141V0H95.8558V15.5282L103.399 7.20602H107.769L101.273 14.9701L108.379 25.7141H103.95L98.5644 17.7821Z" fill="url(#paint2_linear_87_2)"/>
<path d="M124.663 17.8525H112.458C112.672 19.2179 113.232 20.2961 114.134 21.0925C115.035 21.889 116.159 22.2899 117.498 22.2899C119.205 22.2899 120.616 21.6181 121.722 20.2798L123.675 22.9509C122.974 23.9424 122.091 24.6956 121.026 25.2048C119.956 25.7141 118.754 25.9688 117.416 25.9688C115.709 25.9688 114.202 25.5624 112.9 24.7551C111.598 23.9479 110.592 22.8209 109.886 21.3743C109.176 19.9277 108.821 18.2968 108.821 16.4709C108.821 14.6667 109.167 13.0467 109.855 11.6001C110.542 10.1535 111.502 9.02652 112.722 8.21923C113.947 7.41194 115.326 7.00558 116.86 7.00558C118.376 7.00558 119.728 7.40652 120.926 8.20298C122.118 8.99943 123.051 10.121 123.721 11.5676C124.39 13.0142 124.727 14.683 124.727 16.5793C124.722 16.8719 124.699 17.2999 124.663 17.8525ZM113.901 11.703C113.096 12.5212 112.604 13.6156 112.431 14.981H121.258C121.103 13.6427 120.625 12.5537 119.828 11.7247C119.032 10.8903 118.044 10.4786 116.856 10.4786C115.69 10.4677 114.707 10.8795 113.901 11.703Z" fill="url(#paint3_linear_87_2)"/>
<path d="M137.564 24.7172C137.136 25.1344 136.617 25.4432 136.007 25.6545C135.397 25.8658 134.75 25.9688 134.072 25.9688C132.365 25.9688 131.045 25.4378 130.112 24.3759C129.178 23.3139 128.714 21.7644 128.714 19.7326V10.8199H126.151V7.35232H128.714V3.12082H132.356V7.35232H136.521V10.8199H132.356V19.6242C132.356 20.5236 132.543 21.2117 132.911 21.6885C133.28 22.1653 133.813 22.3983 134.514 22.3983C135.329 22.3983 136.007 22.1436 136.553 21.6343L137.564 24.7172Z" fill="url(#paint4_linear_87_2)"/>
<path d="M140.564 0H144.205V25.7195H140.564V0Z" fill="url(#paint5_linear_87_2)"/>
<path d="M160.179 8.9615C161.395 10.2673 162 12.2394 162 14.8726V25.725H158.563V23.4711C158.117 24.2784 157.48 24.896 156.656 25.324C155.832 25.7521 154.835 25.9634 153.669 25.9634C152.504 25.9634 151.484 25.725 150.61 25.2536C149.736 24.7822 149.063 24.1212 148.585 23.276C148.107 22.4308 147.87 21.4772 147.87 20.4153C147.87 18.7519 148.389 17.4137 149.427 16.4113C150.465 15.4036 152.103 14.9051 154.334 14.9051H158.354V14.6288C158.354 13.3339 158.03 12.3424 157.379 11.6489C156.729 10.9554 155.763 10.6086 154.48 10.6086C153.606 10.6086 152.745 10.7711 151.903 11.0962C151.061 11.4213 150.346 11.871 149.764 12.4453L148.334 9.29201C149.149 8.55515 150.132 7.98625 151.275 7.59615C152.422 7.20605 153.633 7.00558 154.917 7.00558C157.216 7.00558 158.968 7.65575 160.179 8.9615ZM156.861 22.0678C157.571 21.5693 158.071 20.8596 158.358 19.9331V17.7821H154.603C152.504 17.7821 151.457 18.6057 151.457 20.2419C151.457 21.0275 151.721 21.6506 152.245 22.1166C152.768 22.5771 153.496 22.8101 154.43 22.8101C155.34 22.8101 156.15 22.5608 156.861 22.0678Z" fill="url(#paint6_linear_87_2)"/>
<path d="M0 25.9633H39.964C40.7379 23.8015 41.3205 21.526 41.6984 19.1583H0V25.9633Z" fill="url(#paint7_linear_87_2)"/>
<path d="M16.1378 16.3842H42.0445C42.1401 15.2681 42.1901 14.1303 42.1901 12.9817C42.1901 11.8331 42.1401 10.6953 42.0445 9.57916H16.1378V16.3842Z" fill="url(#paint8_linear_87_2)"/>
<path d="M32.371 6.80508H41.6985C41.3206 4.43739 40.738 2.15639 39.9641 0H32.371V6.80508Z" fill="url(#paint9_linear_87_2)"/>
<defs>
<linearGradient id="paint0_linear_87_2" x1="42.6976" y1="1.3858" x2="122.968" y2="45.384" gradientUnits="userSpaceOnUse">
<stop offset="4.1024e-07" stop-color="#FFA69E"/>
<stop offset="0.9955" stop-color="#861657"/>
</linearGradient>
<linearGradient id="paint1_linear_87_2" x1="48.1586" y1="-8.57649" x2="128.429" y2="35.4218" gradientUnits="userSpaceOnUse">
<stop offset="4.1024e-07" stop-color="#FFA69E"/>
<stop offset="0.9955" stop-color="#861657"/>
</linearGradient>
<linearGradient id="paint2_linear_87_2" x1="54.0034" y1="-19.241" x2="134.274" y2="24.7572" gradientUnits="userSpaceOnUse">
<stop offset="4.1024e-07" stop-color="#FFA69E"/>
<stop offset="0.9955" stop-color="#861657"/>
</linearGradient>
<linearGradient id="paint3_linear_87_2" x1="59.0445" y1="-28.4369" x2="139.315" y2="15.5614" gradientUnits="userSpaceOnUse">
<stop offset="4.1024e-07" stop-color="#FFA69E"/>
<stop offset="0.9955" stop-color="#861657"/>
</linearGradient>
<linearGradient id="paint4_linear_87_2" x1="64.356" y1="-38.1275" x2="144.626" y2="5.87072" gradientUnits="userSpaceOnUse">
<stop offset="4.1024e-07" stop-color="#FFA69E"/>
<stop offset="0.9955" stop-color="#861657"/>
</linearGradient>
<linearGradient id="paint5_linear_87_2" x1="68.046" y1="-44.8596" x2="148.316" y2="-0.86143" gradientUnits="userSpaceOnUse">
<stop offset="4.1024e-07" stop-color="#FFA69E"/>
<stop offset="0.9955" stop-color="#861657"/>
</linearGradient>
<linearGradient id="paint6_linear_87_2" x1="70.2976" y1="-48.9675" x2="150.568" y2="-4.96926" gradientUnits="userSpaceOnUse">
<stop offset="4.1024e-07" stop-color="#FFA69E"/>
<stop offset="0.9955" stop-color="#861657"/>
</linearGradient>
<linearGradient id="paint7_linear_87_2" x1="28.0323" y1="28.1412" x2="108.302" y2="72.1394" gradientUnits="userSpaceOnUse">
<stop offset="4.1024e-07" stop-color="#FFA69E"/>
<stop offset="0.9955" stop-color="#861657"/>
</linearGradient>
<linearGradient id="paint8_linear_87_2" x1="34.1761" y1="16.9328" x2="114.446" y2="60.931" gradientUnits="userSpaceOnUse">
<stop offset="4.1024e-07" stop-color="#FFA69E"/>
<stop offset="0.9955" stop-color="#861657"/>
</linearGradient>
<linearGradient id="paint9_linear_87_2" x1="39.9718" y1="6.35901" x2="120.242" y2="50.3573" gradientUnits="userSpaceOnUse">
<stop offset="4.1024e-07" stop-color="#FFA69E"/>
<stop offset="0.9955" stop-color="#861657"/>
</linearGradient>
</defs>
</svg>
